<svg width="20" height="20" viewBox="0 0 20 20" fill="none" xmlns="http://www.w3.org/2000/svg">
<path d="M9.9991 13.3367C9.88942 13.3373 9.78071 13.3163 9.67917 13.2748C9.57764 13.2334 9.4853 13.1723 9.40743 13.095L4.40743 8.09504C4.25051 7.93812 4.16235 7.72529 4.16235 7.50337C4.16235 7.28145 4.25051 7.06862 4.40743 6.9117C4.56435 6.75478 4.77718 6.66663 4.9991 6.66663C5.22101 6.66663 5.43384 6.75478 5.59076 6.9117L9.9991 11.3284L14.4074 6.92004C14.5668 6.78351 14.7719 6.71218 14.9816 6.72028C15.1914 6.72838 15.3903 6.81532 15.5387 6.96373C15.6871 7.11215 15.7741 7.31109 15.7822 7.52082C15.7903 7.73055 15.719 7.93562 15.5824 8.09504L10.5824 13.095C10.4272 13.249 10.2177 13.3358 9.9991 13.3367Z" fill="#374151"/>
</svg>
