<svg width="138" height="28" viewBox="0 0 138 28" fill="none" xmlns="http://www.w3.org/2000/svg">
<g clip-path="url(#clip0_1799_17727)">
<path d="M12.828 10.6004C12.6589 10.378 12.5042 10.1595 12.3342 9.95346C11.9781 9.52264 11.5509 9.17738 11.0616 8.89857C10.6629 8.6715 10.2482 8.49339 9.80309 8.38522C9.21577 8.24278 8.62091 8.2232 8.0204 8.27822C7.52162 8.32391 7.03745 8.42859 6.58907 8.64935C6.27986 8.80159 5.9822 8.97923 5.69207 9.16479C5.55807 9.25058 5.46553 9.39745 5.3353 9.49117C5.03905 9.70448 4.81886 9.98423 4.61916 10.2777C4.19174 10.9062 3.91079 11.5949 3.78645 12.3465C3.71298 12.7899 3.68872 13.2352 3.71769 13.6802C3.77021 14.4814 3.98356 15.2431 4.38437 15.9438C4.61633 16.3492 4.89492 16.7264 5.24817 17.0381C5.39276 17.1656 5.56702 17.2633 5.73634 17.3596C6.33049 17.6976 6.97198 17.9116 7.64691 18.0124C8.07833 18.0767 8.51588 18.1131 8.95319 18.0473C9.2923 17.9963 9.63659 17.9641 9.96793 17.8816C10.5046 17.7485 11.0074 17.5254 11.4796 17.2358C11.9096 16.9719 12.2894 16.6495 12.6424 16.2928C13.1238 15.8065 13.55 15.2771 13.9077 14.6962C14.1564 14.2924 14.4061 13.8877 14.6234 13.4671C14.8325 13.0624 15.0042 12.6384 15.1855 12.2199C15.312 11.9285 15.4264 11.6322 15.5473 11.3385C15.6064 11.1951 15.5868 11.1636 15.433 11.1548C14.9663 11.1282 14.4995 11.1023 14.033 11.0727C13.7589 11.0552 13.485 11.0314 13.1815 11.0081C15.6196 9.21072 18.0428 7.42382 20.4783 5.62805C20.4809 5.65813 20.4837 5.67747 20.4837 5.69706C20.4936 6.61837 20.5025 7.53968 20.5126 8.46099C20.5209 9.20396 20.5305 9.94693 20.5395 10.6899C20.5484 11.4329 20.5567 12.1758 20.5661 12.9188C20.5736 13.4923 20.5824 14.0656 20.5901 14.6388C20.5908 14.6801 20.5904 14.7213 20.5904 14.8015C20.4389 14.5919 20.3111 14.4152 20.1834 14.2381C19.902 13.8471 19.6215 13.4555 19.3385 13.0657C19.3076 13.0235 19.2617 12.9918 19.2226 12.9554C19.1934 12.996 19.1586 13.0335 19.1359 13.0773C18.8307 13.6664 18.5328 14.2593 18.2208 14.8449C18.0767 15.1151 17.9161 15.3783 17.7449 15.6329C17.3801 16.1744 17.0092 16.712 16.6291 17.243C16.4845 17.4449 16.3126 17.6282 16.1454 17.8133C15.8562 18.1336 15.5659 18.4534 15.2661 18.7642C15.1172 18.9185 14.9465 19.0519 14.7854 19.1945C14.6076 19.3519 14.4402 19.523 14.2499 19.6636C13.9004 19.9219 13.5493 20.1814 13.1775 20.4054C12.6276 20.7364 12.0469 21.0173 11.4344 21.2122C10.9813 21.3563 10.5098 21.4479 10.0424 21.5421C9.45432 21.6605 8.85546 21.6358 8.26131 21.6167C7.60828 21.5957 6.96044 21.512 6.32579 21.3507C5.76154 21.2073 5.2192 21.0064 4.6924 20.7579C4.10673 20.4816 3.55755 20.1476 3.05289 19.7487C2.4797 19.2959 1.9748 18.7744 1.54596 18.1814C1.0665 17.5177 0.689709 16.8022 0.428546 16.0301C0.253574 15.5119 0.117695 14.9813 0.0729509 14.4339C0.0392752 14.0201 -0.00476273 13.6049 0.000418141 13.1911C0.0105444 12.4129 0.109923 11.6429 0.360488 10.9009C0.489774 10.5181 0.613409 10.1285 0.794504 9.76905C1.18401 8.99531 1.64228 8.26213 2.27458 7.65111C2.51738 7.41636 2.74345 7.16178 3.00485 6.94941C3.43769 6.59785 3.90514 6.29246 4.40109 6.03043C4.95545 5.73739 5.53241 5.4975 6.13857 5.33851C6.54032 5.23337 6.95385 5.1702 7.36384 5.09699C7.97095 4.98836 8.58606 4.99792 9.19716 5.02519C9.83606 5.05363 10.4719 5.13826 11.0861 5.32779C11.4553 5.44155 11.8208 5.57047 12.1809 5.71058C12.7439 5.92925 13.2733 6.21739 13.7584 6.57314C14.1447 6.85662 14.5193 7.15875 14.8719 7.4814C15.1198 7.70823 15.3266 7.98005 15.5437 8.23859C15.7427 8.47568 15.7321 8.47171 15.4726 8.65332C15.207 8.83912 14.9564 9.04613 14.6952 9.23846C14.4317 9.43242 14.1614 9.61752 13.8969 9.81055C13.5392 10.0719 13.1845 10.3367 12.828 10.6004Z" fill="#4C2399"/>
<path d="M13.4591 14.375C13.5895 13.422 13.5587 12.4825 13.2422 11.5351C13.785 11.5731 14.3073 11.6094 14.8478 11.647C14.4701 12.6063 14.033 13.5215 13.4591 14.375Z" fill="#4C2399"/>
<path d="M32.7596 20.6561C32.23 20.9725 31.6732 21.2051 31.089 21.3543C30.5047 21.5035 29.8654 21.5781 29.1718 21.5781C27.0538 21.5781 25.3281 20.9116 23.9952 19.5784C22.6623 18.2454 21.9961 16.5125 21.9961 14.3795C21.9961 12.2918 22.667 10.5905 24.0091 9.27541C25.3509 7.96059 27.0903 7.30294 29.2265 7.30294C29.9386 7.30294 30.5775 7.37078 31.1439 7.50646C31.7097 7.64191 32.2483 7.85428 32.7596 8.14359L32.7323 12.0207C32.3216 11.605 31.8466 11.2843 31.308 11.0581C30.7694 10.8325 30.1988 10.7192 29.5962 10.7192C28.5007 10.7192 27.6242 11.0514 26.9669 11.7155C26.3096 12.3799 25.9811 13.2591 25.9811 14.3524C25.9811 15.4733 26.3167 16.3654 26.9874 17.0299C27.6585 17.694 28.5645 18.0262 29.7057 18.0262C30.3356 18.0262 30.8949 17.9132 31.3834 17.6873C31.8715 17.4614 32.3216 17.1091 32.7323 16.6298L32.7596 20.6561Z" fill="#4C2399"/>
<path d="M36.177 21.0469V10.771H34.3008V7.74802H36.177V3.32867H40.0798V7.74802H41.956V10.771H40.0798V21.0469H36.177Z" fill="#4C2399"/>
<path d="M44.5182 7.74802H48.4074V21.0469H44.5182V7.74802ZM44.1758 2.28474C44.1758 1.67022 44.3995 1.14149 44.8469 0.698786C45.2941 0.256081 45.8282 0.0343781 46.4492 0.0343781C47.0789 0.0343781 47.6199 0.253517 48.0718 0.691792C48.5237 1.1303 48.7498 1.66113 48.7498 2.28474C48.7498 2.90835 48.5237 3.44174 48.0718 3.88444C47.6199 4.32738 47.0789 4.54861 46.4492 4.54861C45.8282 4.54861 45.2941 4.32295 44.8469 3.87092C44.3995 3.41912 44.1758 2.8904 44.1758 2.28474Z" fill="#4C2399"/>
<path d="M55.671 21.0469L50.207 7.74802H54.7125L56.9857 14.6618C57.168 15.2222 57.3145 15.7419 57.4237 16.2207C57.5335 16.7 57.6107 17.1698 57.6569 17.6307C57.7662 16.9348 57.8757 16.3429 57.9854 15.8547C58.0949 15.3668 58.2228 14.9241 58.3688 14.5261L60.6557 7.74802H65.0926L59.5738 21.0469H55.671Z" fill="#4C2399"/>
<path d="M72.8964 14.3386C72.8964 15.5406 73.1954 16.4762 73.7934 17.1448C74.3913 17.8138 75.2245 18.1479 76.2927 18.1479C77.3606 18.1479 78.1936 17.8138 78.7917 17.1448C79.3896 16.4762 79.6887 15.5406 79.6887 14.3386C79.6887 13.1369 79.3852 12.1899 78.7781 11.4985C78.1707 10.8073 77.3333 10.4615 76.2653 10.4615C75.2334 10.4615 74.4141 10.8096 73.807 11.5055C73.1997 12.2014 72.8964 13.1457 72.8964 14.3386ZM69.3359 27.0547V7.7095H73.0744V9.90554C73.5857 9.02013 74.2133 8.35806 74.9574 7.91955C75.7013 7.48127 76.5665 7.26213 77.5523 7.26213C79.4605 7.26213 80.9531 7.88807 82.0305 9.13972C83.1076 10.3916 83.6462 12.1382 83.6462 14.3792C83.6462 16.5393 83.1031 18.2724 82.0168 19.5784C80.9302 20.8843 79.5015 21.5371 77.7304 21.5371C76.6622 21.5371 75.7562 21.3406 75.012 20.9475C74.2679 20.5542 73.6311 19.9376 73.1017 19.097C73.1474 19.4315 73.1816 19.7952 73.2046 20.1882C73.2272 20.5815 73.2388 21.031 73.2388 21.5371V27.0547H69.3359Z" fill="#0073C3"/>
<path d="M96.5213 14.3406C96.5213 13.1477 96.2178 12.2033 95.6107 11.5075C95.0036 10.8116 94.184 10.4635 93.1526 10.4635C92.0933 10.4635 91.2604 10.8092 90.6533 11.5005C90.0462 12.1919 89.7429 13.1389 89.7429 14.3406C89.7429 15.5426 90.0415 16.4782 90.6396 17.1468C91.2375 17.8158 92.066 18.1499 93.1253 18.1499C94.2022 18.1499 95.0377 17.8158 95.6314 17.1468C96.2246 16.4782 96.5213 15.5426 96.5213 14.3406ZM100.082 21.0103H96.3023L96.3572 19.0989C95.8276 19.9396 95.1908 20.5562 94.4466 20.9495C93.7025 21.3425 92.7968 21.5391 91.7283 21.5391C89.9482 21.5391 88.5124 20.884 87.4214 19.5734C86.3306 18.2632 85.7852 16.5322 85.7852 14.3812C85.7852 12.1402 86.3214 10.3936 87.3941 9.1417C88.467 7.89006 89.9572 7.26411 91.8654 7.26411C92.8603 7.26411 93.7347 7.48582 94.4878 7.92852C95.2409 8.37146 95.873 9.0312 96.3845 9.90752V7.71148H100.082V21.0103Z" fill="#0073C3"/>
<path d="M103.901 7.70895H107.79V21.0078H103.901V7.70895ZM103.559 2.24567C103.559 1.63115 103.782 1.10266 104.23 0.659718C104.677 0.217012 105.211 -0.00468445 105.832 -0.00468445C106.462 -0.00468445 107.003 0.214682 107.455 0.652723C107.907 1.09123 108.133 1.62206 108.133 2.24567C108.133 2.86928 107.907 3.40267 107.455 3.84537C107.003 4.28831 106.462 4.50955 105.832 4.50955C105.211 4.50955 104.677 4.28388 104.23 3.83186C103.782 3.38006 103.559 2.85133 103.559 2.24567Z" fill="#0073C3"/>
<path d="M110.434 18.6786L113.432 17.1468C113.533 17.662 113.802 18.0685 114.24 18.3669C114.679 18.6651 115.222 18.8143 115.87 18.8143C116.509 18.8143 117.011 18.6989 117.376 18.4686C117.741 18.238 117.924 17.9196 117.924 17.5128C117.924 16.8712 117.276 16.3334 115.98 15.8995C115.578 15.7641 115.258 15.651 115.021 15.5606C113.441 14.9731 112.348 14.3812 111.741 13.7846C111.134 13.1883 110.831 12.4518 110.831 11.5751C110.831 10.2735 111.346 9.22096 112.378 8.41622C113.41 7.61217 114.77 7.2098 116.459 7.2098C117.664 7.2098 118.707 7.44945 119.588 7.92829C120.469 8.40736 121.11 9.08529 121.512 9.96184L118.65 11.3718C118.495 10.8748 118.226 10.4973 117.842 10.2397C117.459 9.98212 116.979 9.85343 116.404 9.85343C115.829 9.85343 115.363 9.97093 115.007 10.2059C114.651 10.4409 114.473 10.7479 114.473 11.1277C114.473 11.7874 115.359 12.402 117.13 12.9715C117.34 13.0347 117.5 13.0843 117.609 13.1204C119.079 13.5995 120.124 14.1574 120.745 14.7948C121.366 15.4319 121.676 16.2432 121.676 17.2281C121.676 18.5476 121.161 19.596 120.129 20.3732C119.097 21.1504 117.705 21.5391 115.952 21.5391C114.564 21.5391 113.38 21.2836 112.399 20.773C111.417 20.2625 110.762 19.5645 110.434 18.6786Z" fill="#0073C3"/>
<path d="M134.447 14.3406C134.447 13.1477 134.144 12.2033 133.536 11.5075C132.929 10.8116 132.11 10.4635 131.078 10.4635C130.019 10.4635 129.186 10.8092 128.579 11.5005C127.972 12.1919 127.669 13.1389 127.669 14.3406C127.669 15.5426 127.967 16.4782 128.565 17.1468C129.163 17.8158 129.992 18.1499 131.051 18.1499C132.128 18.1499 132.963 17.8158 133.557 17.1468C134.15 16.4782 134.447 15.5426 134.447 14.3406ZM138.008 21.0103H134.228L134.283 19.0989C133.753 19.9396 133.117 20.5562 132.372 20.9495C131.628 21.3425 130.723 21.5391 129.654 21.5391C127.874 21.5391 126.438 20.884 125.347 19.5734C124.256 18.2632 123.711 16.5322 123.711 14.3812C123.711 12.1402 124.247 10.3936 125.32 9.1417C126.393 7.89006 127.883 7.26411 129.791 7.26411C130.786 7.26411 131.661 7.48582 132.414 7.92852C133.167 8.37146 133.799 9.0312 134.31 9.90752V7.71148H138.008V21.0103Z" fill="#0073C3"/>
</g>
<defs>
<clipPath id="clip0_1799_17727">
<rect width="138" height="27.0588" fill="white"/>
</clipPath>
</defs>
</svg>
